# xmcd
#
# Track frame offsets:
#	150
#	17394
#	35195
#	54416
#	72416
#	91995
#	111734
#	130136
#	153056
#	169679
#	190021
#	213361
#	228015
#	251011
#	266518
#
# Disc length: 3772 seconds
#
# Revision: 0
# Processed by: cddbd v1.5.1PL0 Copyright (c) Steve Scherf et al.
# Submitted via: audiograbber 1.81.01
#
DISCID=c60eba0f
DTITLE=Boogie Stuff - Have Mercy
DYEAR=2004
DGENRE=
TTITLE0=Muddy Water
TTITLE1=Shake
TTITLE2=Long Way To Memphis
TTITLE3=Homesick
TTITLE4=Bad Boy
TTITLE5=Don´t Believe A Word
TTITLE6=Funky Town
TTITLE7=Desert Night
TTITLE8=Just Got Paid
TTITLE9=Jungle Of Chicks
TTITLE10=Indian Of The Group (Live)
TTITLE11=Who Did You Love
TTITLE12=Black Limousin
TTITLE13=Hello Baby
TTITLE14=Hidden Track
EXTD=
EXTT0=
EXTT1=
EXTT2=
EXTT3=
EXTT4=
EXTT5=
EXTT6=
EXTT7=
EXTT8=
EXTT9=
EXTT10=
EXTT11=
EXTT12=
EXTT13=
EXTT14=
PLAYORDER=
